G75*
%MOIN*%
%OFA0B0*%
%FSLAX25Y25*%
%IPPOS*%
%LPD*%
%AMOC8*
5,1,8,0,0,1.08239X$1,22.5*
%
%ADD10C,0.00000*%
%ADD11C,0.00600*%
%ADD12OC8,0.05600*%
%ADD13C,0.05600*%
%ADD14C,0.05200*%
%ADD15OC8,0.10000*%
%ADD16R,0.03962X0.03962*%
%ADD17C,0.01200*%
%ADD18C,0.01600*%
%ADD19C,0.02400*%
D10*
X0019583Y0001600D02*
X0019583Y0096128D01*
X0306985Y0096128D01*
X0306985Y0001600D01*
X0019583Y0001600D01*
D11*
X0036355Y0053702D02*
X0035288Y0054769D01*
X0035288Y0060107D01*
X0038491Y0060107D01*
X0039558Y0059040D01*
X0039558Y0056905D01*
X0038491Y0055837D01*
X0035288Y0055837D01*
X0033113Y0055837D02*
X0033113Y0062242D01*
X0032045Y0060107D02*
X0029910Y0060107D01*
X0028842Y0059040D01*
X0028842Y0055837D01*
X0025600Y0056905D02*
X0024532Y0055837D01*
X0025600Y0056905D02*
X0025600Y0061175D01*
X0026667Y0060107D02*
X0024532Y0060107D01*
X0032045Y0060107D02*
X0033113Y0059040D01*
X0042788Y0060107D02*
X0042788Y0055837D01*
X0043855Y0055837D02*
X0041720Y0055837D01*
X0046017Y0055837D02*
X0048152Y0055837D01*
X0047085Y0055837D02*
X0047085Y0062242D01*
X0048152Y0062242D01*
X0053523Y0062242D02*
X0053523Y0055837D01*
X0053523Y0057972D02*
X0050321Y0055837D01*
X0055699Y0056905D02*
X0056766Y0057972D01*
X0058901Y0057972D01*
X0059969Y0059040D01*
X0058901Y0060107D01*
X0055699Y0060107D01*
X0053523Y0057972D02*
X0050321Y0060107D01*
X0043855Y0060107D02*
X0042788Y0060107D01*
X0042788Y0062242D02*
X0042788Y0063310D01*
X0055699Y0056905D02*
X0056766Y0055837D01*
X0059969Y0055837D01*
X0063212Y0055837D02*
X0065347Y0055837D01*
X0066414Y0056905D01*
X0066414Y0059040D01*
X0065347Y0060107D01*
X0063212Y0060107D01*
X0062144Y0059040D01*
X0062144Y0057972D01*
X0066414Y0057972D01*
X0068590Y0056905D02*
X0068590Y0061175D01*
X0069657Y0062242D01*
X0072860Y0062242D01*
X0072860Y0055837D01*
X0069657Y0055837D01*
X0068590Y0056905D01*
X0081480Y0057972D02*
X0085751Y0057972D01*
X0085751Y0056905D02*
X0085751Y0059040D01*
X0084683Y0060107D01*
X0082548Y0060107D01*
X0081480Y0059040D01*
X0081480Y0057972D01*
X0084683Y0055837D02*
X0085751Y0056905D01*
X0084683Y0055837D02*
X0082548Y0055837D01*
X0087926Y0060107D02*
X0090061Y0055837D01*
X0092196Y0060107D01*
X0095426Y0060107D02*
X0095426Y0055837D01*
X0096493Y0055837D02*
X0094358Y0055837D01*
X0098655Y0055837D02*
X0099723Y0056905D01*
X0099723Y0061175D01*
X0100790Y0060107D02*
X0098655Y0060107D01*
X0096493Y0060107D02*
X0095426Y0060107D01*
X0095426Y0062242D02*
X0095426Y0063310D01*
X0102965Y0060107D02*
X0106168Y0060107D01*
X0107236Y0059040D01*
X0107236Y0056905D01*
X0106168Y0055837D01*
X0102965Y0055837D01*
X0109411Y0055837D02*
X0109411Y0060107D01*
X0111546Y0062242D01*
X0113681Y0060107D01*
X0113681Y0055837D01*
X0122302Y0055837D02*
X0125505Y0055837D01*
X0126572Y0056905D01*
X0126572Y0059040D01*
X0125505Y0060107D01*
X0122302Y0060107D01*
X0122302Y0062242D02*
X0122302Y0055837D01*
X0128747Y0055837D02*
X0128747Y0059040D01*
X0129815Y0060107D01*
X0133018Y0060107D01*
X0133018Y0055837D01*
X0135193Y0055837D02*
X0135193Y0060107D01*
X0139463Y0060107D02*
X0139463Y0056905D01*
X0138396Y0055837D01*
X0135193Y0055837D01*
X0141638Y0056905D02*
X0141638Y0059040D01*
X0142706Y0060107D01*
X0144841Y0060107D01*
X0145909Y0059040D01*
X0145909Y0056905D01*
X0144841Y0055837D01*
X0142706Y0055837D01*
X0141638Y0056905D01*
X0148084Y0056905D02*
X0149152Y0055837D01*
X0151287Y0055837D01*
X0152354Y0056905D01*
X0149152Y0059040D02*
X0148084Y0057972D01*
X0148084Y0056905D01*
X0149152Y0059040D02*
X0151287Y0059040D01*
X0152354Y0060107D01*
X0152354Y0061175D01*
X0151287Y0062242D01*
X0149152Y0062242D01*
X0148084Y0061175D01*
X0113681Y0059040D02*
X0109411Y0059040D01*
X0037423Y0053702D02*
X0036355Y0053702D01*
X0015925Y0057972D02*
X0013789Y0055837D01*
X0011654Y0057972D01*
X0011654Y0062242D01*
X0009479Y0061175D02*
X0008412Y0062242D01*
X0006276Y0062242D01*
X0005209Y0061175D01*
X0009479Y0056905D01*
X0008412Y0055837D01*
X0006276Y0055837D01*
X0005209Y0056905D01*
X0005209Y0061175D01*
X0009479Y0061175D02*
X0009479Y0056905D01*
X0015925Y0057972D02*
X0015925Y0062242D01*
D12*
X0221513Y0066364D03*
X0231513Y0066364D03*
X0231513Y0076364D03*
X0221513Y0076364D03*
X0221513Y0056364D03*
X0231513Y0056364D03*
D13*
X0289539Y0061679D02*
X0295139Y0061679D01*
X0295139Y0071679D02*
X0289539Y0071679D01*
X0289539Y0081679D02*
X0295139Y0081679D01*
X0233560Y0018101D02*
X0233560Y0012501D01*
X0223560Y0012501D02*
X0223560Y0018101D01*
X0213560Y0018101D02*
X0213560Y0012501D01*
D14*
X0227997Y0034198D03*
X0246997Y0034198D03*
D15*
X0034387Y0013687D03*
X0033245Y0082112D03*
D16*
X0208166Y0038214D03*
X0238875Y0051206D03*
X0133363Y0020104D03*
X0259741Y0014592D03*
D17*
X0237960Y0014784D02*
X0302385Y0014784D01*
X0302385Y0015982D02*
X0237960Y0015982D01*
X0237960Y0015601D02*
X0237960Y0018447D01*
X0237851Y0019131D01*
X0237637Y0019790D01*
X0237323Y0020407D01*
X0236916Y0020967D01*
X0236426Y0021457D01*
X0235866Y0021864D01*
X0235249Y0022178D01*
X0234590Y0022392D01*
X0233906Y0022501D01*
X0233860Y0022501D01*
X0233860Y0015601D01*
X0233260Y0015601D01*
X0233260Y0022501D01*
X0233213Y0022501D01*
X0232529Y0022392D01*
X0231871Y0022178D01*
X0231254Y0021864D01*
X0230693Y0021457D01*
X0230204Y0020967D01*
X0229797Y0020407D01*
X0229482Y0019790D01*
X0229268Y0019131D01*
X0229160Y0018447D01*
X0229160Y0015601D01*
X0233260Y0015601D01*
X0233260Y0015001D01*
X0229160Y0015001D01*
X0229160Y0012154D01*
X0229268Y0011470D01*
X0229482Y0010812D01*
X0229797Y0010195D01*
X0230204Y0009634D01*
X0230693Y0009145D01*
X0231254Y0008738D01*
X0231871Y0008423D01*
X0232529Y0008209D01*
X0233213Y0008101D01*
X0233260Y0008101D01*
X0233260Y0015001D01*
X0233860Y0015001D01*
X0233860Y0015601D01*
X0237960Y0015601D01*
X0237960Y0015001D02*
X0233860Y0015001D01*
X0233860Y0008101D01*
X0233906Y0008101D01*
X0234590Y0008209D01*
X0235249Y0008423D01*
X0235866Y0008738D01*
X0236426Y0009145D01*
X0236916Y0009634D01*
X0237323Y0010195D01*
X0237637Y0010812D01*
X0237851Y0011470D01*
X0237960Y0012154D01*
X0237960Y0015001D01*
X0237960Y0013585D02*
X0302385Y0013585D01*
X0302385Y0012387D02*
X0237960Y0012387D01*
X0237760Y0011188D02*
X0302385Y0011188D01*
X0302385Y0009990D02*
X0237174Y0009990D01*
X0233860Y0009990D02*
X0233260Y0009990D01*
X0233260Y0011188D02*
X0233860Y0011188D01*
X0233860Y0012387D02*
X0233260Y0012387D01*
X0233260Y0013585D02*
X0233860Y0013585D01*
X0229160Y0013585D02*
X0228560Y0013585D01*
X0228560Y0012387D02*
X0229160Y0012387D01*
X0228560Y0011506D02*
X0227799Y0009669D01*
X0226392Y0008262D01*
X0224554Y0007501D01*
X0222565Y0007501D01*
X0220728Y0008262D01*
X0219321Y0009669D01*
X0218560Y0011506D01*
X0218560Y0019095D01*
X0219321Y0020933D01*
X0220728Y0022340D01*
X0222565Y0023101D01*
X0224554Y0023101D01*
X0226392Y0022340D01*
X0227799Y0020933D01*
X0228560Y0019095D01*
X0228560Y0011506D01*
X0228428Y0011188D02*
X0229360Y0011188D01*
X0229946Y0009990D02*
X0227932Y0009990D01*
X0226921Y0008791D02*
X0231180Y0008791D01*
X0233260Y0008791D02*
X0233860Y0008791D01*
X0235940Y0008791D02*
X0302385Y0008791D01*
X0302385Y0007593D02*
X0224776Y0007593D01*
X0222344Y0007593D02*
X0214776Y0007593D01*
X0214554Y0007501D02*
X0216392Y0008262D01*
X0217799Y0009669D01*
X0218560Y0011506D01*
X0218560Y0019095D01*
X0217799Y0020933D01*
X0216392Y0022340D01*
X0214554Y0023101D01*
X0212565Y0023101D01*
X0211566Y0022687D01*
X0211566Y0034541D01*
X0212347Y0035322D01*
X0212347Y0041107D01*
X0211166Y0042288D01*
X0211166Y0076342D01*
X0213739Y0078915D01*
X0216993Y0078915D01*
X0216513Y0078435D01*
X0216513Y0074293D01*
X0219441Y0071364D01*
X0223584Y0071364D01*
X0226513Y0074293D01*
X0229441Y0071364D01*
X0233584Y0071364D01*
X0236513Y0074293D01*
X0236513Y0077121D01*
X0244758Y0085367D01*
X0284135Y0085219D01*
X0285184Y0084229D01*
X0284539Y0082673D01*
X0284539Y0080684D01*
X0285301Y0078846D01*
X0286707Y0077440D01*
X0288545Y0076679D01*
X0296134Y0076679D01*
X0297972Y0077440D01*
X0299378Y0078846D01*
X0300139Y0080684D01*
X0300139Y0082673D01*
X0299378Y0084511D01*
X0297972Y0085918D01*
X0296134Y0086679D01*
X0291332Y0086679D01*
X0287426Y0090363D01*
X0287040Y0090751D01*
X0286993Y0090771D01*
X0286956Y0090806D01*
X0286444Y0091000D01*
X0285939Y0091212D01*
X0285888Y0091212D01*
X0285840Y0091230D01*
X0285294Y0091214D01*
X0244123Y0091369D01*
X0244117Y0091372D01*
X0243526Y0091372D01*
X0242935Y0091374D01*
X0242930Y0091372D01*
X0242924Y0091372D01*
X0242376Y0091145D01*
X0241831Y0090921D01*
X0241827Y0090917D01*
X0241821Y0090915D01*
X0241401Y0090495D01*
X0240984Y0090081D01*
X0240981Y0090075D01*
X0232270Y0081364D01*
X0230755Y0081364D01*
X0227661Y0084458D01*
X0226558Y0084915D01*
X0211900Y0084915D01*
X0210797Y0084458D01*
X0209954Y0083614D01*
X0205623Y0079284D01*
X0205166Y0078181D01*
X0205166Y0042288D01*
X0203985Y0041107D01*
X0203985Y0035322D01*
X0204766Y0034541D01*
X0204766Y0020018D01*
X0205284Y0018769D01*
X0208560Y0015492D01*
X0208560Y0011506D01*
X0209321Y0009669D01*
X0210728Y0008262D01*
X0212565Y0007501D01*
X0214554Y0007501D01*
X0212344Y0007593D02*
X0037626Y0007593D01*
X0037120Y0007087D02*
X0040987Y0010953D01*
X0040987Y0013087D01*
X0034987Y0013087D01*
X0034987Y0014287D01*
X0040987Y0014287D01*
X0040987Y0016420D01*
X0037120Y0020287D01*
X0034987Y0020287D01*
X0034987Y0014287D01*
X0033787Y0014287D01*
X0033787Y0020287D01*
X0031653Y0020287D01*
X0027787Y0016420D01*
X0027787Y0014287D01*
X0033787Y0014287D01*
X0033787Y0013087D01*
X0034987Y0013087D01*
X0034987Y0007087D01*
X0037120Y0007087D01*
X0034987Y0007593D02*
X0033787Y0007593D01*
X0033787Y0007087D02*
X0033787Y0013087D01*
X0027787Y0013087D01*
X0027787Y0010953D01*
X0031653Y0007087D01*
X0033787Y0007087D01*
X0033787Y0008791D02*
X0034987Y0008791D01*
X0038825Y0008791D02*
X0210198Y0008791D01*
X0209188Y0009990D02*
X0040023Y0009990D01*
X0040987Y0011188D02*
X0208692Y0011188D01*
X0208560Y0012387D02*
X0040987Y0012387D01*
X0034987Y0012387D02*
X0033787Y0012387D01*
X0033787Y0013585D02*
X0024183Y0013585D01*
X0024183Y0012387D02*
X0027787Y0012387D01*
X0027787Y0011188D02*
X0024183Y0011188D01*
X0024183Y0009990D02*
X0028750Y0009990D01*
X0033787Y0009990D02*
X0034987Y0009990D01*
X0034987Y0011188D02*
X0033787Y0011188D01*
X0034987Y0013585D02*
X0208560Y0013585D01*
X0208560Y0014784D02*
X0040987Y0014784D01*
X0040987Y0015982D02*
X0208070Y0015982D01*
X0206872Y0017181D02*
X0040226Y0017181D01*
X0039028Y0018379D02*
X0205673Y0018379D01*
X0204949Y0019578D02*
X0037829Y0019578D01*
X0034987Y0019578D02*
X0033787Y0019578D01*
X0033787Y0018379D02*
X0034987Y0018379D01*
X0034987Y0017181D02*
X0033787Y0017181D01*
X0033787Y0015982D02*
X0034987Y0015982D01*
X0034987Y0014784D02*
X0033787Y0014784D01*
X0027787Y0014784D02*
X0024183Y0014784D01*
X0024183Y0015982D02*
X0027787Y0015982D01*
X0028547Y0017181D02*
X0024183Y0017181D01*
X0024183Y0018379D02*
X0029745Y0018379D01*
X0030944Y0019578D02*
X0024183Y0019578D01*
X0024183Y0020776D02*
X0204766Y0020776D01*
X0204766Y0021975D02*
X0024183Y0021975D01*
X0024183Y0023173D02*
X0204766Y0023173D01*
X0204766Y0024372D02*
X0024183Y0024372D01*
X0024183Y0025570D02*
X0204766Y0025570D01*
X0204766Y0026769D02*
X0024183Y0026769D01*
X0024183Y0027967D02*
X0204766Y0027967D01*
X0204766Y0029166D02*
X0024183Y0029166D01*
X0024183Y0030364D02*
X0204766Y0030364D01*
X0204766Y0031563D02*
X0024183Y0031563D01*
X0024183Y0032761D02*
X0204766Y0032761D01*
X0204766Y0033960D02*
X0024183Y0033960D01*
X0024183Y0035158D02*
X0204148Y0035158D01*
X0203985Y0036357D02*
X0024183Y0036357D01*
X0024183Y0037555D02*
X0203985Y0037555D01*
X0203985Y0038754D02*
X0024183Y0038754D01*
X0024183Y0039952D02*
X0203985Y0039952D01*
X0204029Y0041151D02*
X0024183Y0041151D01*
X0024183Y0042349D02*
X0205166Y0042349D01*
X0205166Y0043548D02*
X0024183Y0043548D01*
X0024183Y0044746D02*
X0205166Y0044746D01*
X0205166Y0045945D02*
X0024183Y0045945D01*
X0024183Y0047143D02*
X0205166Y0047143D01*
X0205166Y0048342D02*
X0024183Y0048342D01*
X0024183Y0049540D02*
X0205166Y0049540D01*
X0205166Y0050739D02*
X0024183Y0050739D01*
X0024183Y0051937D02*
X0034584Y0051937D01*
X0034939Y0051582D02*
X0035858Y0051202D01*
X0037920Y0051202D01*
X0038839Y0051582D01*
X0039542Y0052286D01*
X0039923Y0053205D01*
X0039923Y0053734D01*
X0040105Y0053916D01*
X0040304Y0053718D01*
X0041223Y0053337D01*
X0044352Y0053337D01*
X0044936Y0053579D01*
X0045520Y0053337D01*
X0048649Y0053337D01*
X0049212Y0053570D01*
X0049343Y0053483D01*
X0050318Y0053288D01*
X0051294Y0053481D01*
X0051924Y0053901D01*
X0052107Y0053718D01*
X0053026Y0053337D01*
X0054021Y0053337D01*
X0054939Y0053718D01*
X0055145Y0053923D01*
X0055350Y0053718D01*
X0056269Y0053337D01*
X0060466Y0053337D01*
X0061385Y0053718D01*
X0061590Y0053923D01*
X0061795Y0053718D01*
X0062714Y0053337D01*
X0065844Y0053337D01*
X0066763Y0053718D01*
X0067502Y0054457D01*
X0067538Y0054421D01*
X0067538Y0054421D01*
X0068241Y0053718D01*
X0069160Y0053337D01*
X0073357Y0053337D01*
X0074276Y0053718D01*
X0074979Y0054421D01*
X0075360Y0055340D01*
X0075360Y0062740D01*
X0074979Y0063659D01*
X0074276Y0064362D01*
X0073357Y0064742D01*
X0069160Y0064742D01*
X0068241Y0064362D01*
X0067538Y0063659D01*
X0067173Y0063294D01*
X0066484Y0062605D01*
X0066470Y0062591D01*
X0066384Y0062384D01*
X0066214Y0062454D01*
X0065844Y0062607D01*
X0062714Y0062607D01*
X0061795Y0062227D01*
X0061056Y0061488D01*
X0061021Y0061523D01*
X0061021Y0061523D01*
X0060317Y0062227D01*
X0059768Y0062454D01*
X0059399Y0062607D01*
X0056023Y0062607D01*
X0056023Y0062740D01*
X0055643Y0063659D01*
X0054939Y0064362D01*
X0054021Y0064742D01*
X0053026Y0064742D01*
X0052107Y0064362D01*
X0051404Y0063659D01*
X0051023Y0062740D01*
X0051023Y0062517D01*
X0050652Y0062590D01*
X0050652Y0062740D01*
X0050271Y0063659D01*
X0049568Y0064362D01*
X0048649Y0064742D01*
X0046587Y0064742D01*
X0045668Y0064362D01*
X0045237Y0063930D01*
X0044907Y0064726D01*
X0044204Y0065429D01*
X0043285Y0065810D01*
X0042290Y0065810D01*
X0041371Y0065429D01*
X0040668Y0064726D01*
X0040288Y0063807D01*
X0040288Y0061846D01*
X0039920Y0062213D01*
X0039907Y0062227D01*
X0039379Y0062445D01*
X0038988Y0062607D01*
X0035613Y0062607D01*
X0035613Y0062740D01*
X0035232Y0063659D01*
X0034529Y0064362D01*
X0033610Y0064742D01*
X0032615Y0064742D01*
X0031696Y0064362D01*
X0030993Y0063659D01*
X0030613Y0062740D01*
X0030613Y0062607D01*
X0029413Y0062607D01*
X0028494Y0062227D01*
X0028288Y0062021D01*
X0028083Y0062227D01*
X0027826Y0062333D01*
X0027719Y0062591D01*
X0027016Y0063294D01*
X0026097Y0063675D01*
X0025102Y0063675D01*
X0024183Y0063294D01*
X0024183Y0091528D01*
X0302385Y0091528D01*
X0302385Y0006200D01*
X0024183Y0006200D01*
X0024183Y0053337D01*
X0025029Y0053337D01*
X0025948Y0053718D01*
X0026702Y0054471D01*
X0026723Y0054421D01*
X0027426Y0053718D01*
X0028345Y0053337D01*
X0029340Y0053337D01*
X0030258Y0053718D01*
X0030962Y0054421D01*
X0030977Y0054459D01*
X0030993Y0054421D01*
X0031696Y0053718D01*
X0032615Y0053337D01*
X0033185Y0053337D01*
X0033872Y0052650D01*
X0034939Y0051582D01*
X0039194Y0051937D02*
X0205166Y0051937D01*
X0205166Y0053136D02*
X0039895Y0053136D01*
X0033386Y0053136D02*
X0024183Y0053136D01*
X0026565Y0054334D02*
X0026809Y0054334D01*
X0030875Y0054334D02*
X0031080Y0054334D01*
X0030613Y0062724D02*
X0027586Y0062724D01*
X0024183Y0063923D02*
X0031257Y0063923D01*
X0034968Y0063923D02*
X0040335Y0063923D01*
X0041063Y0065121D02*
X0024183Y0065121D01*
X0024183Y0066320D02*
X0205166Y0066320D01*
X0205166Y0067518D02*
X0024183Y0067518D01*
X0024183Y0068717D02*
X0205166Y0068717D01*
X0205166Y0069915D02*
X0024183Y0069915D01*
X0024183Y0071114D02*
X0205166Y0071114D01*
X0205166Y0072312D02*
X0024183Y0072312D01*
X0024183Y0073511D02*
X0205166Y0073511D01*
X0205166Y0074709D02*
X0024183Y0074709D01*
X0024183Y0075908D02*
X0029267Y0075908D01*
X0030262Y0074912D02*
X0036227Y0074912D01*
X0040445Y0079129D01*
X0040445Y0085094D01*
X0036227Y0089312D01*
X0030262Y0089312D01*
X0026045Y0085094D01*
X0026045Y0079129D01*
X0030262Y0074912D01*
X0028068Y0077106D02*
X0024183Y0077106D01*
X0024183Y0078305D02*
X0026870Y0078305D01*
X0026045Y0079503D02*
X0024183Y0079503D01*
X0024183Y0080702D02*
X0026045Y0080702D01*
X0026045Y0081900D02*
X0024183Y0081900D01*
X0024183Y0083099D02*
X0026045Y0083099D01*
X0026045Y0084297D02*
X0024183Y0084297D01*
X0024183Y0085496D02*
X0026446Y0085496D01*
X0027645Y0086694D02*
X0024183Y0086694D01*
X0024183Y0087893D02*
X0028844Y0087893D01*
X0030042Y0089091D02*
X0024183Y0089091D01*
X0024183Y0090290D02*
X0241194Y0090290D01*
X0239997Y0089091D02*
X0036448Y0089091D01*
X0037646Y0087893D02*
X0238799Y0087893D01*
X0237600Y0086694D02*
X0038845Y0086694D01*
X0040043Y0085496D02*
X0236402Y0085496D01*
X0235203Y0084297D02*
X0227822Y0084297D01*
X0229020Y0083099D02*
X0234005Y0083099D01*
X0232806Y0081900D02*
X0230219Y0081900D01*
X0238895Y0079503D02*
X0285028Y0079503D01*
X0284539Y0080702D02*
X0240093Y0080702D01*
X0241292Y0081900D02*
X0284539Y0081900D01*
X0284716Y0083099D02*
X0242490Y0083099D01*
X0243689Y0084297D02*
X0285112Y0084297D01*
X0291315Y0086694D02*
X0302385Y0086694D01*
X0302385Y0085496D02*
X0298393Y0085496D01*
X0299467Y0084297D02*
X0302385Y0084297D01*
X0302385Y0083099D02*
X0299963Y0083099D01*
X0300139Y0081900D02*
X0302385Y0081900D01*
X0302385Y0080702D02*
X0300139Y0080702D01*
X0299650Y0079503D02*
X0302385Y0079503D01*
X0302385Y0078305D02*
X0298836Y0078305D01*
X0297166Y0077106D02*
X0302385Y0077106D01*
X0302385Y0075908D02*
X0297981Y0075908D01*
X0297972Y0075918D02*
X0296134Y0076679D01*
X0288545Y0076679D01*
X0286707Y0075918D01*
X0285301Y0074511D01*
X0284539Y0072673D01*
X0284539Y0070684D01*
X0285301Y0068846D01*
X0286707Y0067440D01*
X0288545Y0066679D01*
X0296134Y0066679D01*
X0297972Y0067440D01*
X0299378Y0068846D01*
X0300139Y0070684D01*
X0300139Y0072673D01*
X0299378Y0074511D01*
X0297972Y0075918D01*
X0299180Y0074709D02*
X0302385Y0074709D01*
X0302385Y0073511D02*
X0299792Y0073511D01*
X0300139Y0072312D02*
X0302385Y0072312D01*
X0302385Y0071114D02*
X0300139Y0071114D01*
X0299821Y0069915D02*
X0302385Y0069915D01*
X0302385Y0068717D02*
X0299248Y0068717D01*
X0298050Y0067518D02*
X0302385Y0067518D01*
X0302385Y0066320D02*
X0236513Y0066320D01*
X0236513Y0067518D02*
X0286629Y0067518D01*
X0287850Y0065756D02*
X0287233Y0065442D01*
X0286673Y0065035D01*
X0286183Y0064545D01*
X0285776Y0063985D01*
X0285462Y0063368D01*
X0285248Y0062709D01*
X0285139Y0062025D01*
X0285139Y0061979D01*
X0292039Y0061979D01*
X0292039Y0066079D01*
X0289193Y0066079D01*
X0288509Y0065970D01*
X0287850Y0065756D01*
X0286792Y0065121D02*
X0236513Y0065121D01*
X0236513Y0064293D02*
X0233584Y0061364D01*
X0229441Y0061364D01*
X0226513Y0064293D01*
X0226513Y0068435D01*
X0229441Y0071364D01*
X0233584Y0071364D01*
X0236513Y0068435D01*
X0236513Y0064293D01*
X0236142Y0063923D02*
X0285744Y0063923D01*
X0292039Y0063923D02*
X0292639Y0063923D01*
X0292639Y0065121D02*
X0292039Y0065121D01*
X0292639Y0066079D02*
X0292639Y0061979D01*
X0292039Y0061979D01*
X0292039Y0061379D01*
X0285139Y0061379D01*
X0285139Y0061332D01*
X0285248Y0060648D01*
X0285462Y0059990D01*
X0285776Y0059373D01*
X0286183Y0058812D01*
X0286673Y0058323D01*
X0287233Y0057916D01*
X0287850Y0057601D01*
X0288509Y0057387D01*
X0289193Y0057279D01*
X0292039Y0057279D01*
X0292039Y0061379D01*
X0292639Y0061379D01*
X0292639Y0057279D01*
X0295486Y0057279D01*
X0296170Y0057387D01*
X0296828Y0057601D01*
X0297445Y0057916D01*
X0298006Y0058323D01*
X0298495Y0058812D01*
X0298903Y0059373D01*
X0299217Y0059990D01*
X0299431Y0060648D01*
X0299539Y0061332D01*
X0299539Y0061379D01*
X0292639Y0061379D01*
X0292639Y0061979D01*
X0299539Y0061979D01*
X0299539Y0062025D01*
X0299431Y0062709D01*
X0299217Y0063368D01*
X0298903Y0063985D01*
X0298495Y0064545D01*
X0298006Y0065035D01*
X0297445Y0065442D01*
X0296828Y0065756D01*
X0296170Y0065970D01*
X0295486Y0066079D01*
X0292639Y0066079D01*
X0297887Y0065121D02*
X0302385Y0065121D01*
X0302385Y0063923D02*
X0298934Y0063923D01*
X0299426Y0062724D02*
X0302385Y0062724D01*
X0302385Y0061526D02*
X0292639Y0061526D01*
X0292039Y0061526D02*
X0233745Y0061526D01*
X0233335Y0060764D02*
X0231813Y0060764D01*
X0231813Y0056664D01*
X0235913Y0056664D01*
X0235913Y0058186D01*
X0233335Y0060764D01*
X0233772Y0060327D02*
X0285352Y0060327D01*
X0285953Y0059129D02*
X0234970Y0059129D01*
X0235913Y0057930D02*
X0287213Y0057930D01*
X0292039Y0057930D02*
X0292639Y0057930D01*
X0292639Y0059129D02*
X0292039Y0059129D01*
X0292039Y0060327D02*
X0292639Y0060327D01*
X0298725Y0059129D02*
X0302385Y0059129D01*
X0302385Y0060327D02*
X0299327Y0060327D01*
X0297465Y0057930D02*
X0302385Y0057930D01*
X0302385Y0056732D02*
X0235913Y0056732D01*
X0235913Y0056064D02*
X0231813Y0056064D01*
X0231813Y0056664D01*
X0231213Y0056664D01*
X0231213Y0060764D01*
X0229690Y0060764D01*
X0227113Y0058186D01*
X0227113Y0056664D01*
X0231212Y0056664D01*
X0231212Y0056064D01*
X0227113Y0056064D01*
X0227113Y0054541D01*
X0229690Y0051964D01*
X0231213Y0051964D01*
X0231213Y0056064D01*
X0231813Y0056064D01*
X0231813Y0051964D01*
X0233335Y0051964D01*
X0235913Y0054541D01*
X0235913Y0056064D01*
X0235913Y0055533D02*
X0302385Y0055533D01*
X0302385Y0054334D02*
X0235706Y0054334D01*
X0234507Y0053136D02*
X0302385Y0053136D01*
X0302385Y0051937D02*
X0224157Y0051937D01*
X0223584Y0051364D02*
X0226513Y0054293D01*
X0226513Y0058435D01*
X0223584Y0061364D01*
X0226513Y0064293D01*
X0226513Y0068435D01*
X0223584Y0071364D01*
X0219441Y0071364D01*
X0216513Y0068435D01*
X0216513Y0064293D01*
X0219441Y0061364D01*
X0223584Y0061364D01*
X0219441Y0061364D01*
X0216513Y0058435D01*
X0216513Y0054293D01*
X0219441Y0051364D01*
X0223584Y0051364D01*
X0218868Y0051937D02*
X0211166Y0051937D01*
X0211166Y0050739D02*
X0302385Y0050739D01*
X0302385Y0049540D02*
X0211166Y0049540D01*
X0211166Y0048342D02*
X0302385Y0048342D01*
X0302385Y0047143D02*
X0211166Y0047143D01*
X0211166Y0045945D02*
X0302385Y0045945D01*
X0302385Y0044746D02*
X0211166Y0044746D01*
X0211166Y0043548D02*
X0302385Y0043548D01*
X0302385Y0042349D02*
X0211166Y0042349D01*
X0212303Y0041151D02*
X0302385Y0041151D01*
X0302385Y0039952D02*
X0212347Y0039952D01*
X0212347Y0038754D02*
X0226452Y0038754D01*
X0227042Y0038998D02*
X0225278Y0038268D01*
X0223928Y0036917D01*
X0223197Y0035153D01*
X0223197Y0033244D01*
X0223928Y0031479D01*
X0225278Y0030129D01*
X0227042Y0029398D01*
X0228952Y0029398D01*
X0230716Y0030129D01*
X0232066Y0031479D01*
X0232797Y0033244D01*
X0232797Y0035153D01*
X0232066Y0036917D01*
X0230716Y0038268D01*
X0228952Y0038998D01*
X0227042Y0038998D01*
X0229542Y0038754D02*
X0245452Y0038754D01*
X0246042Y0038998D02*
X0244278Y0038268D01*
X0242928Y0036917D01*
X0242197Y0035153D01*
X0242197Y0033244D01*
X0242928Y0031479D01*
X0244278Y0030129D01*
X0246042Y0029398D01*
X0247952Y0029398D01*
X0249716Y0030129D01*
X0251066Y0031479D01*
X0251797Y0033244D01*
X0251797Y0035153D01*
X0251066Y0036917D01*
X0249716Y0038268D01*
X0247952Y0038998D01*
X0246042Y0038998D01*
X0248542Y0038754D02*
X0302385Y0038754D01*
X0302385Y0037555D02*
X0250428Y0037555D01*
X0251298Y0036357D02*
X0302385Y0036357D01*
X0302385Y0035158D02*
X0251795Y0035158D01*
X0251797Y0033960D02*
X0302385Y0033960D01*
X0302385Y0032761D02*
X0251597Y0032761D01*
X0251101Y0031563D02*
X0302385Y0031563D01*
X0302385Y0030364D02*
X0249951Y0030364D01*
X0244043Y0030364D02*
X0230951Y0030364D01*
X0225043Y0030364D02*
X0211566Y0030364D01*
X0211566Y0029166D02*
X0302385Y0029166D01*
X0302385Y0027967D02*
X0211566Y0027967D01*
X0211566Y0026769D02*
X0302385Y0026769D01*
X0302385Y0025570D02*
X0211566Y0025570D01*
X0211566Y0024372D02*
X0302385Y0024372D01*
X0302385Y0023173D02*
X0211566Y0023173D01*
X0216757Y0021975D02*
X0220363Y0021975D01*
X0219256Y0020776D02*
X0217864Y0020776D01*
X0218360Y0019578D02*
X0218760Y0019578D01*
X0218560Y0018379D02*
X0218560Y0018379D01*
X0218560Y0017181D02*
X0218560Y0017181D01*
X0218560Y0015982D02*
X0218560Y0015982D01*
X0218560Y0014784D02*
X0218560Y0014784D01*
X0218560Y0013585D02*
X0218560Y0013585D01*
X0218560Y0012387D02*
X0218560Y0012387D01*
X0218428Y0011188D02*
X0218692Y0011188D01*
X0219188Y0009990D02*
X0217932Y0009990D01*
X0216921Y0008791D02*
X0220198Y0008791D01*
X0228560Y0014784D02*
X0229160Y0014784D01*
X0229160Y0015982D02*
X0228560Y0015982D01*
X0228560Y0017181D02*
X0229160Y0017181D01*
X0229160Y0018379D02*
X0228560Y0018379D01*
X0228360Y0019578D02*
X0229413Y0019578D01*
X0233260Y0019578D02*
X0233860Y0019578D01*
X0233860Y0018379D02*
X0233260Y0018379D01*
X0233260Y0017181D02*
X0233860Y0017181D01*
X0233860Y0015982D02*
X0233260Y0015982D01*
X0233260Y0014784D02*
X0233860Y0014784D01*
X0237960Y0017181D02*
X0302385Y0017181D01*
X0302385Y0018379D02*
X0237960Y0018379D01*
X0237706Y0019578D02*
X0302385Y0019578D01*
X0302385Y0020776D02*
X0237055Y0020776D01*
X0235649Y0021975D02*
X0302385Y0021975D01*
X0302385Y0006394D02*
X0024183Y0006394D01*
X0024183Y0007593D02*
X0031147Y0007593D01*
X0029948Y0008791D02*
X0024183Y0008791D01*
X0080429Y0054421D02*
X0081132Y0053718D01*
X0082051Y0053337D01*
X0085181Y0053337D01*
X0086099Y0053718D01*
X0087167Y0054785D01*
X0087584Y0055202D01*
X0087746Y0054878D01*
X0087847Y0054575D01*
X0087966Y0054437D01*
X0088047Y0054274D01*
X0088289Y0054065D01*
X0088498Y0053823D01*
X0088661Y0053742D01*
X0088799Y0053623D01*
X0089102Y0053521D01*
X0089388Y0053379D01*
X0089570Y0053366D01*
X0089742Y0053308D01*
X0090061Y0053331D01*
X0090380Y0053308D01*
X0090553Y0053366D01*
X0090734Y0053379D01*
X0091020Y0053521D01*
X0091323Y0053623D01*
X0091461Y0053742D01*
X0091624Y0053823D01*
X0091833Y0054065D01*
X0092075Y0054274D01*
X0092156Y0054437D01*
X0092208Y0054496D01*
X0092239Y0054421D01*
X0092942Y0053718D01*
X0093861Y0053337D01*
X0096991Y0053337D01*
X0097574Y0053579D01*
X0098158Y0053337D01*
X0099152Y0053337D01*
X0100071Y0053718D01*
X0100825Y0054471D01*
X0100846Y0054421D01*
X0101549Y0053718D01*
X0102468Y0053337D01*
X0106666Y0053337D01*
X0107584Y0053718D01*
X0107790Y0053923D01*
X0107995Y0053718D01*
X0108914Y0053337D01*
X0109908Y0053337D01*
X0110827Y0053718D01*
X0111530Y0054421D01*
X0111546Y0054459D01*
X0111562Y0054421D01*
X0112265Y0053718D01*
X0113184Y0053337D01*
X0114179Y0053337D01*
X0115097Y0053718D01*
X0115801Y0054421D01*
X0116181Y0055340D01*
X0116181Y0060605D01*
X0115801Y0061523D01*
X0112962Y0064362D01*
X0112054Y0064738D01*
X0112043Y0064742D01*
X0111049Y0064742D01*
X0110130Y0064362D01*
X0109427Y0063659D01*
X0109427Y0063659D01*
X0107995Y0062227D01*
X0107995Y0062227D01*
X0107790Y0062021D01*
X0107598Y0062213D01*
X0107584Y0062227D01*
X0107057Y0062445D01*
X0106666Y0062607D01*
X0102468Y0062607D01*
X0101928Y0062384D01*
X0101842Y0062591D01*
X0101139Y0063294D01*
X0100220Y0063675D01*
X0099225Y0063675D01*
X0098307Y0063294D01*
X0097926Y0062913D01*
X0097926Y0063807D01*
X0097545Y0064726D01*
X0096842Y0065429D01*
X0095923Y0065810D01*
X0094928Y0065810D01*
X0094010Y0065429D01*
X0093306Y0064726D01*
X0092926Y0063807D01*
X0092926Y0062538D01*
X0092870Y0062566D01*
X0091877Y0062636D01*
X0090934Y0062322D01*
X0090183Y0061670D01*
X0090061Y0061427D01*
X0089940Y0061670D01*
X0089188Y0062322D01*
X0088245Y0062636D01*
X0087253Y0062566D01*
X0086363Y0062121D01*
X0086290Y0062036D01*
X0086099Y0062227D01*
X0085550Y0062454D01*
X0085181Y0062607D01*
X0082051Y0062607D01*
X0081132Y0062227D01*
X0080064Y0061159D01*
X0079361Y0060456D01*
X0078980Y0059537D01*
X0078980Y0057475D01*
X0079361Y0056556D01*
X0080048Y0055869D01*
X0080048Y0055340D01*
X0080429Y0054421D01*
X0080515Y0054334D02*
X0074893Y0054334D01*
X0075360Y0055533D02*
X0080048Y0055533D01*
X0079288Y0056732D02*
X0075360Y0056732D01*
X0075360Y0057930D02*
X0078980Y0057930D01*
X0078980Y0059129D02*
X0075360Y0059129D01*
X0075360Y0060327D02*
X0079308Y0060327D01*
X0080431Y0061526D02*
X0075360Y0061526D01*
X0075360Y0062724D02*
X0092926Y0062724D01*
X0090110Y0061526D02*
X0090012Y0061526D01*
X0092973Y0063923D02*
X0074715Y0063923D01*
X0067802Y0063923D02*
X0055379Y0063923D01*
X0051668Y0063923D02*
X0050007Y0063923D01*
X0044512Y0065121D02*
X0093701Y0065121D01*
X0097150Y0065121D02*
X0205166Y0065121D01*
X0205166Y0063923D02*
X0153142Y0063923D01*
X0152703Y0064362D02*
X0151784Y0064742D01*
X0148654Y0064742D01*
X0147735Y0064362D01*
X0147032Y0063659D01*
X0147032Y0063659D01*
X0145965Y0062591D01*
X0145879Y0062384D01*
X0145730Y0062445D01*
X0145339Y0062607D01*
X0142209Y0062607D01*
X0141290Y0062227D01*
X0141085Y0062021D01*
X0140879Y0062227D01*
X0139961Y0062607D01*
X0138966Y0062607D01*
X0138047Y0062227D01*
X0137344Y0061523D01*
X0137328Y0061485D01*
X0137312Y0061523D01*
X0136609Y0062227D01*
X0135690Y0062607D01*
X0134696Y0062607D01*
X0134105Y0062363D01*
X0133515Y0062607D01*
X0129318Y0062607D01*
X0128399Y0062227D01*
X0127660Y0061488D01*
X0127624Y0061523D01*
X0127624Y0061523D01*
X0126921Y0062227D01*
X0126372Y0062454D01*
X0126002Y0062607D01*
X0124802Y0062607D01*
X0124802Y0062740D01*
X0124421Y0063659D01*
X0123718Y0064362D01*
X0122799Y0064742D01*
X0121805Y0064742D01*
X0120886Y0064362D01*
X0120183Y0063659D01*
X0119802Y0062740D01*
X0119802Y0055340D01*
X0120183Y0054421D01*
X0120886Y0053718D01*
X0121805Y0053337D01*
X0126002Y0053337D01*
X0126921Y0053718D01*
X0127126Y0053923D01*
X0127331Y0053718D01*
X0128250Y0053337D01*
X0129245Y0053337D01*
X0130164Y0053718D01*
X0130867Y0054421D01*
X0130883Y0054459D01*
X0130898Y0054421D01*
X0131602Y0053718D01*
X0132520Y0053337D01*
X0133515Y0053337D01*
X0134105Y0053582D01*
X0134696Y0053337D01*
X0138893Y0053337D01*
X0139812Y0053718D01*
X0140515Y0054421D01*
X0140551Y0054457D01*
X0140587Y0054421D01*
X0140587Y0054421D01*
X0141290Y0053718D01*
X0142209Y0053337D01*
X0145338Y0053337D01*
X0146257Y0053718D01*
X0146996Y0054457D01*
X0147032Y0054421D01*
X0147032Y0054421D01*
X0147735Y0053718D01*
X0148654Y0053337D01*
X0151784Y0053337D01*
X0152703Y0053718D01*
X0154474Y0055488D01*
X0154854Y0056407D01*
X0154854Y0057402D01*
X0154474Y0058321D01*
X0154288Y0058506D01*
X0154474Y0058691D01*
X0154854Y0059610D01*
X0154854Y0061672D01*
X0154474Y0062591D01*
X0153770Y0063294D01*
X0152703Y0064362D01*
X0147296Y0063923D02*
X0124157Y0063923D01*
X0120447Y0063923D02*
X0113402Y0063923D01*
X0109691Y0063923D02*
X0097878Y0063923D01*
X0101709Y0062724D02*
X0108492Y0062724D01*
X0107584Y0062227D02*
X0107584Y0062227D01*
X0114600Y0062724D02*
X0119802Y0062724D01*
X0119802Y0061526D02*
X0115799Y0061526D01*
X0116181Y0060327D02*
X0119802Y0060327D01*
X0119802Y0059129D02*
X0116181Y0059129D01*
X0116181Y0057930D02*
X0119802Y0057930D01*
X0119802Y0056732D02*
X0116181Y0056732D01*
X0116181Y0055533D02*
X0119802Y0055533D01*
X0120269Y0054334D02*
X0115714Y0054334D01*
X0111648Y0054334D02*
X0111444Y0054334D01*
X0100932Y0054334D02*
X0100688Y0054334D01*
X0092325Y0054334D02*
X0092105Y0054334D01*
X0088017Y0054334D02*
X0086716Y0054334D01*
X0067624Y0054334D02*
X0067380Y0054334D01*
X0061094Y0061526D02*
X0061019Y0061526D01*
X0056023Y0062724D02*
X0066603Y0062724D01*
X0066470Y0062591D02*
X0066470Y0062591D01*
X0067173Y0063294D02*
X0067173Y0063294D01*
X0067538Y0063659D02*
X0067538Y0063659D01*
X0051023Y0062724D02*
X0050652Y0062724D01*
X0040288Y0062724D02*
X0035613Y0062724D01*
X0039907Y0062227D02*
X0039907Y0062227D01*
X0037223Y0075908D02*
X0205166Y0075908D01*
X0205166Y0077106D02*
X0038422Y0077106D01*
X0039620Y0078305D02*
X0205217Y0078305D01*
X0205842Y0079503D02*
X0040445Y0079503D01*
X0040445Y0080702D02*
X0207041Y0080702D01*
X0208239Y0081900D02*
X0040445Y0081900D01*
X0040445Y0083099D02*
X0209438Y0083099D01*
X0210636Y0084297D02*
X0040445Y0084297D01*
X0024183Y0091488D02*
X0302385Y0091488D01*
X0302385Y0090290D02*
X0287503Y0090290D01*
X0288774Y0089091D02*
X0302385Y0089091D01*
X0302385Y0087893D02*
X0290044Y0087893D01*
X0285842Y0078305D02*
X0237696Y0078305D01*
X0236513Y0077106D02*
X0287513Y0077106D01*
X0286697Y0075908D02*
X0236513Y0075908D01*
X0236513Y0074709D02*
X0285499Y0074709D01*
X0284886Y0073511D02*
X0235730Y0073511D01*
X0234532Y0072312D02*
X0284539Y0072312D01*
X0284539Y0071114D02*
X0233834Y0071114D01*
X0235032Y0069915D02*
X0284858Y0069915D01*
X0285430Y0068717D02*
X0236231Y0068717D01*
X0229191Y0071114D02*
X0223834Y0071114D01*
X0224532Y0072312D02*
X0228493Y0072312D01*
X0227295Y0073511D02*
X0225730Y0073511D01*
X0226513Y0074293D02*
X0226513Y0077121D01*
X0226513Y0074293D01*
X0226513Y0074709D02*
X0226513Y0074709D01*
X0226513Y0075908D02*
X0226513Y0075908D01*
X0226513Y0077106D02*
X0226513Y0077106D01*
X0226513Y0077121D02*
X0226513Y0077121D01*
X0216513Y0077106D02*
X0211931Y0077106D01*
X0211166Y0075908D02*
X0216513Y0075908D01*
X0216513Y0074709D02*
X0211166Y0074709D01*
X0211166Y0073511D02*
X0217295Y0073511D01*
X0218493Y0072312D02*
X0211166Y0072312D01*
X0211166Y0071114D02*
X0219191Y0071114D01*
X0217993Y0069915D02*
X0211166Y0069915D01*
X0211166Y0068717D02*
X0216794Y0068717D01*
X0216513Y0067518D02*
X0211166Y0067518D01*
X0211166Y0066320D02*
X0216513Y0066320D01*
X0216513Y0065121D02*
X0211166Y0065121D01*
X0211166Y0063923D02*
X0216883Y0063923D01*
X0218081Y0062724D02*
X0211166Y0062724D01*
X0211166Y0061526D02*
X0219280Y0061526D01*
X0218405Y0060327D02*
X0211166Y0060327D01*
X0211166Y0059129D02*
X0217206Y0059129D01*
X0216513Y0057930D02*
X0211166Y0057930D01*
X0211166Y0056732D02*
X0216513Y0056732D01*
X0216513Y0055533D02*
X0211166Y0055533D01*
X0211166Y0054334D02*
X0216513Y0054334D01*
X0217669Y0053136D02*
X0211166Y0053136D01*
X0205166Y0054334D02*
X0153320Y0054334D01*
X0154492Y0055533D02*
X0205166Y0055533D01*
X0205166Y0056732D02*
X0154854Y0056732D01*
X0154635Y0057930D02*
X0205166Y0057930D01*
X0205166Y0059129D02*
X0154655Y0059129D01*
X0154854Y0060327D02*
X0205166Y0060327D01*
X0205166Y0061526D02*
X0154854Y0061526D01*
X0154341Y0062724D02*
X0205166Y0062724D01*
X0223745Y0061526D02*
X0229280Y0061526D01*
X0229253Y0060327D02*
X0224620Y0060327D01*
X0225819Y0059129D02*
X0228055Y0059129D01*
X0227113Y0057930D02*
X0226513Y0057930D01*
X0226513Y0056732D02*
X0227113Y0056732D01*
X0227113Y0055533D02*
X0226513Y0055533D01*
X0226513Y0054334D02*
X0227319Y0054334D01*
X0228518Y0053136D02*
X0225356Y0053136D01*
X0231213Y0053136D02*
X0231813Y0053136D01*
X0231813Y0054334D02*
X0231213Y0054334D01*
X0231213Y0055533D02*
X0231813Y0055533D01*
X0231813Y0056732D02*
X0231213Y0056732D01*
X0231213Y0057930D02*
X0231813Y0057930D01*
X0231813Y0059129D02*
X0231213Y0059129D01*
X0231213Y0060327D02*
X0231813Y0060327D01*
X0234944Y0062724D02*
X0285253Y0062724D01*
X0292039Y0062724D02*
X0292639Y0062724D01*
X0228081Y0062724D02*
X0224944Y0062724D01*
X0226142Y0063923D02*
X0226883Y0063923D01*
X0226513Y0065121D02*
X0226513Y0065121D01*
X0226513Y0066320D02*
X0226513Y0066320D01*
X0226513Y0067518D02*
X0226513Y0067518D01*
X0226231Y0068717D02*
X0226794Y0068717D01*
X0227993Y0069915D02*
X0225032Y0069915D01*
X0216513Y0078305D02*
X0213129Y0078305D01*
X0146098Y0062724D02*
X0124802Y0062724D01*
X0127622Y0061526D02*
X0127698Y0061526D01*
X0137310Y0061526D02*
X0137346Y0061526D01*
X0140429Y0054334D02*
X0140673Y0054334D01*
X0146874Y0054334D02*
X0147119Y0054334D01*
X0130985Y0054334D02*
X0130780Y0054334D01*
X0212347Y0037555D02*
X0224566Y0037555D01*
X0223695Y0036357D02*
X0212347Y0036357D01*
X0212184Y0035158D02*
X0223199Y0035158D01*
X0223197Y0033960D02*
X0211566Y0033960D01*
X0211566Y0032761D02*
X0223397Y0032761D01*
X0223893Y0031563D02*
X0211566Y0031563D01*
X0232101Y0031563D02*
X0242893Y0031563D01*
X0242397Y0032761D02*
X0232597Y0032761D01*
X0232797Y0033960D02*
X0242197Y0033960D01*
X0242199Y0035158D02*
X0232795Y0035158D01*
X0232298Y0036357D02*
X0242695Y0036357D01*
X0243566Y0037555D02*
X0231428Y0037555D01*
X0231471Y0021975D02*
X0226757Y0021975D01*
X0227864Y0020776D02*
X0230065Y0020776D01*
X0233260Y0020776D02*
X0233860Y0020776D01*
X0233860Y0021975D02*
X0233260Y0021975D01*
D18*
X0208166Y0038214D02*
X0208166Y0077584D01*
X0212497Y0081915D01*
X0225961Y0081915D01*
X0231513Y0076364D01*
X0243520Y0088372D01*
X0285331Y0088214D01*
X0292261Y0081679D01*
X0292339Y0081679D01*
D19*
X0208166Y0038214D02*
X0208166Y0020694D01*
X0213560Y0015301D01*
M02*
