G75*
%MOIN*%
%OFA0B0*%
%FSLAX25Y25*%
%IPPOS*%
%LPD*%
%AMOC8*
5,1,8,0,0,1.08239X$1,22.5*
%
%ADD10C,0.00000*%
%ADD11R,0.10643X0.17729*%
%ADD12R,0.17729X0.10643*%
%ADD13R,0.10249X0.10249*%
%ADD14R,0.43320X0.41784*%
%ADD15R,0.05000X0.09300*%
%ADD16OC8,0.06400*%
%ADD17R,0.15957X0.22454*%
%ADD18R,0.07898X0.07099*%
%ADD19C,0.06400*%
%ADD20C,0.06000*%
%ADD21R,0.06706X0.05918*%
%ADD22R,0.09400X0.03000*%
%ADD23OC8,0.10800*%
%ADD24R,0.03556X0.04343*%
%ADD25R,0.04762X0.04762*%
D10*
X0019583Y0001600D02*
X0019583Y0096128D01*
X0306985Y0096128D01*
X0306985Y0001600D01*
X0019583Y0001600D01*
D11*
X0066276Y0049395D03*
X0066276Y0082072D03*
D12*
X0152772Y0022191D03*
X0185450Y0022191D03*
D13*
X0069032Y0027466D03*
X0033127Y0044159D03*
X0033127Y0061482D03*
X0069032Y0010143D03*
D14*
X0114426Y0065222D03*
D15*
X0114426Y0032422D03*
X0121126Y0032422D03*
X0127826Y0032422D03*
X0107726Y0032422D03*
X0101026Y0032422D03*
D16*
X0221513Y0056364D03*
X0231513Y0056364D03*
X0231513Y0066364D03*
X0221513Y0066364D03*
X0221513Y0076364D03*
X0231513Y0076364D03*
D17*
X0186729Y0069435D03*
X0147556Y0069435D03*
D18*
X0098048Y0018655D03*
X0098048Y0007458D03*
D19*
X0213560Y0012501D02*
X0213560Y0018101D01*
X0223560Y0018101D02*
X0223560Y0012501D01*
X0233560Y0012501D02*
X0233560Y0018101D01*
X0289539Y0061679D02*
X0295139Y0061679D01*
X0295139Y0071679D02*
X0289539Y0071679D01*
X0289539Y0081679D02*
X0295139Y0081679D01*
D20*
X0246997Y0034198D03*
X0227997Y0034198D03*
D21*
X0109268Y0016285D03*
X0109268Y0008805D03*
D22*
X0253551Y0049159D03*
X0253551Y0054159D03*
X0253551Y0059159D03*
X0253551Y0064159D03*
X0253551Y0069159D03*
X0253551Y0074159D03*
X0253551Y0079159D03*
X0272151Y0079159D03*
X0272151Y0074159D03*
X0272151Y0069159D03*
X0272151Y0064159D03*
X0272151Y0059159D03*
X0272151Y0054159D03*
X0272151Y0049159D03*
D23*
X0034387Y0013687D03*
X0033245Y0082112D03*
D24*
X0268599Y0032309D03*
X0273717Y0032309D03*
X0273717Y0024435D03*
X0268599Y0024435D03*
D25*
X0259741Y0014592D03*
X0208166Y0038214D03*
X0238875Y0051206D03*
X0133363Y0020104D03*
M02*
