%
M48
M72
T01C0.02362
T02C0.03200
T03C0.03600
T04C0.05500
%
T01
X133363Y20104
X208166Y38214
X238875Y51206
X259741Y14592
T02
X227997Y34198
X246997Y34198
T03
X213560Y15301
X223560Y15301
X233560Y15301
X231513Y56364
X221513Y56364
X221513Y66364
X231513Y66364
X231513Y76364
X221513Y76364
X292339Y71679
X292339Y81679
X292339Y61679
T04
X33245Y82112
X34387Y13687
M30
