G75*
%MOIN*%
%OFA0B0*%
%FSLAX25Y25*%
%IPPOS*%
%LPD*%
%AMOC8*
5,1,8,0,0,1.08239X$1,22.5*
%
%ADD10C,0.00000*%
%ADD11R,0.09843X0.16929*%
%ADD12R,0.16929X0.09843*%
%ADD13R,0.09449X0.09449*%
%ADD14R,0.42520X0.40984*%
%ADD15R,0.04200X0.08500*%
%ADD16R,0.15157X0.21654*%
%ADD17R,0.07098X0.06299*%
%ADD18R,0.05906X0.05118*%
%ADD19R,0.08600X0.02200*%
%ADD20R,0.02756X0.03543*%
D10*
X0019583Y0001600D02*
X0019583Y0096128D01*
X0306985Y0096128D01*
X0306985Y0001600D01*
X0019583Y0001600D01*
D11*
X0066276Y0049395D03*
X0066276Y0082072D03*
D12*
X0152772Y0022191D03*
X0185450Y0022191D03*
D13*
X0069032Y0027466D03*
X0033127Y0044159D03*
X0033127Y0061482D03*
X0069032Y0010143D03*
D14*
X0114426Y0065222D03*
D15*
X0114426Y0032422D03*
X0121126Y0032422D03*
X0127826Y0032422D03*
X0107726Y0032422D03*
X0101026Y0032422D03*
D16*
X0147556Y0069435D03*
X0186729Y0069435D03*
D17*
X0098048Y0018655D03*
X0098048Y0007458D03*
D18*
X0109268Y0008805D03*
X0109268Y0016285D03*
D19*
X0253551Y0049159D03*
X0253551Y0054159D03*
X0253551Y0059159D03*
X0253551Y0064159D03*
X0253551Y0069159D03*
X0253551Y0074159D03*
X0253551Y0079159D03*
X0272151Y0079159D03*
X0272151Y0074159D03*
X0272151Y0069159D03*
X0272151Y0064159D03*
X0272151Y0059159D03*
X0272151Y0054159D03*
X0272151Y0049159D03*
D20*
X0273717Y0032309D03*
X0268599Y0032309D03*
X0268599Y0024435D03*
X0273717Y0024435D03*
M02*
